<?xml version="1.0" encoding="utf-8"?>
<!-- Generator: Adobe Illustrator 16.0.0, SVG Export Plug-In . SVG Version: 6.00 Build 0)  -->
<!DOCTYPE svg PUBLIC "-//W3C//DTD SVG 1.1//EN" "http://www.w3.org/Graphics/SVG/1.1/DTD/svg11.dtd">
<svg version="1.1" id="Capa_1" xmlns="http://www.w3.org/2000/svg" xmlns:xlink="http://www.w3.org/1999/xlink" x="0px" y="0px"
	 width="2777.949px" height="2409.449px" viewBox="0 0 2777.949 2409.449" enable-background="new 0 0 2777.949 2409.449"
	 xml:space="preserve">
<g>
	<path fill="#808080" d="M2462.573,374.257H320.84c-76.49,0-136.59-60.1-136.59-136.59c0-76.491,60.1-131.127,136.59-131.127
		h2141.733c76.49,0,131.126,54.636,131.126,131.127C2593.699,314.157,2539.064,374.257,2462.573,374.257z"/>
	<path fill="#808080" d="M2462.573,751.245c76.49,0,131.126,54.637,131.126,131.127s-54.636,136.59-131.126,136.59H1233.262
		c-76.49,0-136.59-60.1-136.59-136.59s60.1-131.127,136.59-131.127H2462.573z"/>
	<path fill="#808080" d="M2462.573,1390.488c76.49,0,131.126,60.1,131.126,136.59c0,76.491-54.636,131.127-131.126,131.127H867.2
		c-76.49,0-131.126-54.636-131.126-131.127c0-76.49,54.636-136.59,131.126-136.59H2462.573z"/>
	<path fill="#808080" d="M2451.647,2035.193c76.49,0,136.59,54.637,136.59,131.127s-60.1,136.59-136.59,136.59H424.649
		c-76.49,0-131.127-60.1-131.127-136.59s54.637-131.127,131.127-131.127H2451.647z"/>
</g>
</svg>
