<?xml version="1.0" encoding="utf-8"?>
<!-- Generator: Adobe Illustrator 16.0.0, SVG Export Plug-In . SVG Version: 6.00 Build 0)  -->
<!DOCTYPE svg PUBLIC "-//W3C//DTD SVG 1.1//EN" "http://www.w3.org/Graphics/SVG/1.1/DTD/svg11.dtd">
<svg version="1.1" id="Capa_1" xmlns="http://www.w3.org/2000/svg" xmlns:xlink="http://www.w3.org/1999/xlink" x="0px" y="0px"
	 width="2777.949px" height="2409.449px" viewBox="0 0 2777.949 2409.449" enable-background="new 0 0 2777.949 2409.449"
	 xml:space="preserve">
<g>
	<g>
		<path fill="#808080" d="M2454.696,509.689H323.254c-74.132,0-139.004-64.864-139.004-139.005
			c0-74.14,64.872-139.004,139.004-139.004h2131.433c74.14,0,139.005,64.873,139.005,139.004
			C2593.692,444.817,2528.826,509.689,2454.696,509.689z"/>
		<path fill="#808080" d="M2454.696,1343.734H323.254c-74.132,0-139.004-64.873-139.004-139.013
			c0-74.141,64.872-139.005,139.004-139.005h2131.433c74.14,0,139.005,64.873,139.005,139.005
			C2593.699,1278.861,2528.826,1343.734,2454.696,1343.734z"/>
		<path fill="#808080" d="M2454.696,2177.77H323.254c-74.132,0-139.004-64.864-139.004-139.005
			c0-74.14,64.872-139.004,139.004-139.004h2131.433c74.14,0,139.005,64.872,139.005,139.004S2528.826,2177.77,2454.696,2177.77z"/>
	</g>
</g>
</svg>
