<?xml version="1.0" encoding="utf-8"?>
<!-- Generator: Adobe Illustrator 16.0.0, SVG Export Plug-In . SVG Version: 6.00 Build 0)  -->
<!DOCTYPE svg PUBLIC "-//W3C//DTD SVG 1.1//EN" "http://www.w3.org/Graphics/SVG/1.1/DTD/svg11.dtd">
<svg version="1.1" id="Capa_1" xmlns="http://www.w3.org/2000/svg" xmlns:xlink="http://www.w3.org/1999/xlink" x="0px" y="0px"
	 width="2777.949px" height="2409.449px" viewBox="0 0 2777.949 2409.449" enable-background="new 0 0 2777.949 2409.449"
	 xml:space="preserve">
<g>
	<g>
		<path fill="#808080" d="M2462.573,106.54c76.49,0,131.126,54.636,131.126,131.127c0,76.49-54.636,136.59-131.126,136.59H320.84
			c-76.49,0-136.59-60.1-136.59-136.59c0-76.491,60.1-131.127,136.59-131.127H2462.573z"/>
		<path fill="#808080" d="M2009.094,1018.962H774.32c-76.491,0-131.127-60.1-131.127-136.59s54.636-131.127,131.127-131.127
			h1234.774c76.49,0,131.127,54.637,131.127,131.127S2085.584,1018.962,2009.094,1018.962z"/>
		<path fill="#808080" d="M457.43,1527.077c0-76.49,60.1-136.59,136.59-136.59h1595.373c76.49,0,131.127,60.1,131.127,136.59
			c0,76.491-54.637,131.127-131.127,131.127H594.02C517.53,1658.204,457.43,1603.569,457.43,1527.077z"/>
		<path fill="#808080" d="M2402.474,2035.193c76.49,0,136.59,54.637,136.59,131.127s-60.1,136.59-136.59,136.59H375.476
			c-76.49,0-131.126-60.1-131.126-136.59s54.636-131.127,131.126-131.127H2402.474z"/>
	</g>
</g>
</svg>
