<?xml version="1.0" encoding="utf-8"?>
<!-- Generator: Adobe Illustrator 16.0.0, SVG Export Plug-In . SVG Version: 6.00 Build 0)  -->
<!DOCTYPE svg PUBLIC "-//W3C//DTD SVG 1.1//EN" "http://www.w3.org/Graphics/SVG/1.1/DTD/svg11.dtd">
<svg version="1.1" id="Capa_1" xmlns="http://www.w3.org/2000/svg" xmlns:xlink="http://www.w3.org/1999/xlink" x="0px" y="0px"
	 width="355.189px" height="355.189px" viewBox="0 0 355.189 355.189" enable-background="new 0 0 355.189 355.189"
	 xml:space="preserve">
<g>
	<path fill="#808080" d="M44.945,0h155.855c30.595,0,55.006,8.298,73.211,24.888c18.204,16.592,27.308,38.095,27.308,64.517
		c0,15.941-3.989,30.487-11.963,43.615c-7.979,13.128-19.86,23.314-35.647,30.559c22.159,8.379,30.458,19.497,40.886,33.353
		c10.426,13.854,15.65,31.651,15.65,53.392c0,30.612-11.054,55.739-33.136,75.397c-22.089,19.647-43.285,29.472-79.559,29.472
		H44.945V0z M100.291,150.293h79.242c25.452,0,37.451-4.631,49.29-13.896c11.833-9.262,17.762-23.714,17.762-43.373
		c0-16.917-5.604-29.799-16.798-38.659c-11.194-8.854-23.348-13.291-49.757-13.291h-79.739V150.293z M100.291,314.109h94.47
		c25.119,0,34.659-5.84,47.227-17.525c12.555-11.674,18.832-27.42,18.832-47.231c0-20.139-6.999-35.157-21.019-45.063
		c-14.016-9.906-25.394-14.859-52.783-14.859h-86.732v124.682h0.006V314.109z"/>
</g>
</svg>
