<?xml version="1.0" encoding="utf-8"?>
<!-- Generator: Adobe Illustrator 16.0.0, SVG Export Plug-In . SVG Version: 6.00 Build 0)  -->
<!DOCTYPE svg PUBLIC "-//W3C//DTD SVG 1.1//EN" "http://www.w3.org/Graphics/SVG/1.1/DTD/svg11.dtd">
<svg version="1.1" id="Capa_1" xmlns="http://www.w3.org/2000/svg" xmlns:xlink="http://www.w3.org/1999/xlink" x="0px" y="0px"
	 width="438.543px" height="438.543px" viewBox="0 0 438.543 438.543" enable-background="new 0 0 438.543 438.543"
	 xml:space="preserve">
<g>
	<path fill="#808080" d="M355.172,0.715c-6.659,0.478-13.134,0.909-19.417,1.287c-28.171,1.709-48.54,2.567-61.1,2.567
		c-6.472,0-13.422-0.192-20.842-0.57L163.312,0l-5.426,29.407c1.902,0.379,5.52,0.763,10.85,1.144
		c19.603,1.138,33.309,3.806,41.112,7.993v10.85l-2.284,14.272l-6.279,38.544l-4.57,17.987l-8.28,44.824
		c0,0.193-0.334,1.288-1,3.287c-0.666,1.997-1.523,4.899-2.568,8.705c-1.049,3.809-2.235,8.235-3.57,13.278
		c-1.335,5.042-2.856,11.421-4.57,19.13c-1.713,7.707-3.332,15.751-4.853,24.124l-3.429,18.273l-15.985,76.517l-7.71,39.678
		c-2.285,12.188-6.185,21.802-11.704,28.838c-7.614,3.81-18.654,7.519-33.12,11.14c-13.895,3.613-21.221,5.518-21.982,5.708
		l-4.853,24.273c4.564-0.38,13.891-1.235,27.978-2.573c25.315-2.283,41.874-3.33,49.677-3.139l56.531,0.567
		c23.979,2.479,37.777,4.094,41.392,4.859c3.616,0.568,6.282,0.855,7.994,0.855c3.429,0,7.423-0.191,11.99-0.571
		c0.951-0.188,3.143-0.284,6.567-0.284c0.38-1.902,1.235-5.808,2.569-11.711c1.137-5.52,1.804-11.039,1.999-16.563
		c-5.716-0.947-11.991-1.902-18.851-2.848c-10.461-1.143-21.792-3.145-33.975-5.996c-0.564-3.805-0.661-6.375-0.281-7.71
		l3.43-12.847l12.278-67.091l10.849-45.111l17.418-88.793c4.184-20.367,10.467-49.483,18.848-87.366
		c0.763-7.231,1.995-15.036,3.713-23.413c2.282-10.848,4.571-19.221,6.851-25.125c7.043-2.853,16.659-5.802,28.836-8.848
		c10.286-2.281,20.655-5.231,31.121-8.848c1.146-4.188,2.39-9.041,3.716-14.562c0.768-3.619,1.335-7.232,1.711-10.848
		C365.261,0.003,361.832,0.24,355.172,0.715z"/>
</g>
</svg>
