<?xml version="1.0" encoding="utf-8"?>
<!-- Generator: Adobe Illustrator 16.0.0, SVG Export Plug-In . SVG Version: 6.00 Build 0)  -->
<!DOCTYPE svg PUBLIC "-//W3C//DTD SVG 1.1//EN" "http://www.w3.org/Graphics/SVG/1.1/DTD/svg11.dtd">
<svg version="1.1" id="Capa_1" xmlns="http://www.w3.org/2000/svg" xmlns:xlink="http://www.w3.org/1999/xlink" x="0px" y="0px"
	 width="93.333px" height="93.333px" viewBox="0 0 93.333 93.333" enable-background="new 0 0 93.333 93.333" xml:space="preserve">
<g>
	<g>
		<path fill="#808080" d="M60.73,0v43.155c0,5.479-1.104,9.496-3.312,12.059c-2.207,2.561-5.758,3.842-10.653,3.842
			c-5.061,0-8.685-1.271-10.875-3.818c-2.191-2.543-3.286-6.539-3.286-11.984V0H17.671v45.523c0,8.086,2.512,14.458,7.539,19.113
			c5.025,4.655,12.08,6.983,21.166,6.983c6.023,0,11.246-1.047,15.657-3.144c4.415-2.095,7.79-5.104,10.125-9.037
			c2.337-3.93,3.503-8.504,3.503-13.724V0H60.73z"/>
		<rect x="17.671" y="78.9" fill="#808080" width="57.99" height="14.433"/>
	</g>
</g>
</svg>
