<?xml version="1.0" encoding="utf-8"?>
<!-- Generator: Adobe Illustrator 16.0.0, SVG Export Plug-In . SVG Version: 6.00 Build 0)  -->
<!DOCTYPE svg PUBLIC "-//W3C//DTD SVG 1.1//EN" "http://www.w3.org/Graphics/SVG/1.1/DTD/svg11.dtd">
<svg version="1.1" id="Capa_1" xmlns="http://www.w3.org/2000/svg" xmlns:xlink="http://www.w3.org/1999/xlink" x="0px" y="0px"
	 width="94.479px" height="94.479px" viewBox="0 0 94.479 94.479" enable-background="new 0 0 94.479 94.479" xml:space="preserve">
<g>
	<g>
		<path fill="#808080" d="M92.479,6.821H26.823c-1.104,0-2,0.896-2,2v10.76c0,1.104,0.896,2,2,2h65.656c1.104,0,2-0.896,2-2V8.821
			C94.479,7.717,93.584,6.821,92.479,6.821z"/>
		<path fill="#808080" d="M92.479,40.457H26.823c-1.104,0-2,0.896-2,2v10.761c0,1.104,0.896,2,2,2h65.656c1.104,0,2-0.896,2-2
			V42.457C94.479,41.352,93.584,40.457,92.479,40.457z"/>
		<path fill="#808080" d="M92.479,75.109H26.823c-1.104,0-2,0.896-2,2v10.76c0,1.104,0.896,2,2,2h65.656c1.104,0,2-0.896,2-2v-10.76
			C94.479,76.004,93.584,75.109,92.479,75.109z"/>
		<path fill="#808080" d="M1.842,11.104c0.423,0.051,0.848-0.08,1.167-0.359l0.914-0.8v12.974c0,0.828,0.672,1.5,1.5,1.5h1.546
			c0.828,0,1.5-0.672,1.5-1.5V5.567c0-0.828-0.672-1.5-1.5-1.5H5.378c-0.356,0-0.701,0.127-0.974,0.358L0.527,7.728
			c-0.589,0.501-0.699,1.369-0.256,2.003l0.522,0.745C1.04,10.824,1.42,11.053,1.842,11.104z"/>
		<path fill="#808080" d="M2.546,37.5c-0.647,0.229-1.057,0.872-0.99,1.556l0.096,0.999c0.049,0.497,0.34,0.938,0.778,1.176
			c0.438,0.238,0.967,0.243,1.409,0.011c1.18-0.614,1.923-0.774,2.922-0.533c0.71,0.163,1.188,0.586,1.438,1.225
			c0.379,1.144,0.396,2.957-2.854,6.873l-2.506,2.996c-0.589,0.688-0.99,1.119-1.302,1.404c-0.313,0.283-0.488,0.688-0.488,1.106
			v1.476c0,0.827,0.672,1.5,1.5,1.5h9.132c0.828,0,1.5-0.673,1.5-1.5V55.01c0-0.828-0.672-1.5-1.5-1.5H6.896
			c0.458-0.515,1.037-1.211,1.716-2.063c2.804-3.468,5.062-6.645,4.292-10.376c-0.309-1.672-1.247-2.966-2.73-3.752
			c-0.826-0.424-1.879-0.639-3.127-0.639C5.629,36.68,4.031,36.971,2.546,37.5z"/>
		<path fill="#808080" d="M10.491,79.516c0.25-0.135,0.486-0.289,0.739-0.483c1.718-1.313,1.801-3.335,1.786-3.885
			c-0.001-1.878-0.712-3.317-2.166-4.4C9.825,69.977,8.317,69.57,6.49,69.57c-1.347,0-2.786,0.212-4.057,0.597
			c-0.668,0.202-1.106,0.839-1.063,1.532l0.058,0.881c0.031,0.471,0.28,0.896,0.673,1.154c0.395,0.26,0.886,0.319,1.327,0.159
			c0.864-0.307,1.571-0.45,2.223-0.45c0.229,0,0.457,0.02,0.723,0.063c0.939,0.127,1.563,0.549,1.899,1.283
			c0.237,0.52,0.19,1.444-0.083,1.885c-0.653,1.014-2.438,1.217-3.442,1.25c-0.811,0.023-1.453,0.688-1.453,1.498v0.658
			c0,0.827,0.687,1.5,1.515,1.5c1.575,0,2.312,0.309,2.596,0.484c0.737,0.465,1.065,1.043,1.066,1.918
			c0.025,0.912-0.348,1.606-1.129,2.121c-1.014,0.651-2.64,0.647-4.505,0.032c-0.438-0.146-0.918-0.082-1.302,0.175
			c-0.385,0.255-0.63,0.672-0.665,1.132l-0.068,0.872C0.75,88.973,1.135,89.588,1.75,89.83c0.33,0.13,0.551,0.183,1.021,0.28
			c0.857,0.196,1.84,0.303,2.842,0.303c1.493,0,4.248-0.247,5.944-1.919c1.657-1.69,1.974-4.11,1.561-5.729
			C12.636,80.704,11.461,79.946,10.491,79.516z"/>
	</g>
</g>
</svg>
