<?xml version="1.0" encoding="utf-8"?>
<!-- Generator: Adobe Illustrator 16.0.0, SVG Export Plug-In . SVG Version: 6.00 Build 0)  -->
<!DOCTYPE svg PUBLIC "-//W3C//DTD SVG 1.1//EN" "http://www.w3.org/Graphics/SVG/1.1/DTD/svg11.dtd">
<svg version="1.1" id="Слой_1" xmlns="http://www.w3.org/2000/svg" xmlns:xlink="http://www.w3.org/1999/xlink" x="0px" y="0px"
	 width="2777.949px" height="2409.449px" viewBox="0 0 2777.949 2409.449" enable-background="new 0 0 2777.949 2409.449"
	 xml:space="preserve">
<g>
	<path fill="#808080" d="M485.431,200.787H284.644c-60.236,0-100.394,40.157-100.394,100.394v200.788
		c0,60.236,40.157,100.394,100.394,100.394h200.787c60.236,0,100.394-40.157,100.394-100.394V301.181
		C585.824,240.945,545.667,200.787,485.431,200.787z"/>
	<path fill="#808080" d="M485.431,1003.938H284.644c-60.236,0-100.394,40.157-100.394,100.394v200.787
		c0,60.236,40.157,100.394,100.394,100.394h200.787c60.236,0,100.394-40.157,100.394-100.394v-200.787
		C585.824,1044.095,545.667,1003.938,485.431,1003.938z"/>
	<path fill="#808080" d="M485.431,1807.087H284.644c-60.236,0-100.394,40.157-100.394,100.394v200.788
		c0,60.236,40.157,100.394,100.394,100.394h200.787c60.236,0,100.394-40.157,100.394-100.394v-200.788
		C585.824,1847.244,545.667,1807.087,485.431,1807.087z"/>
	<path fill="#808080" d="M2493.306,200.787H1087.793c-60.236,0-100.394,40.157-100.394,100.394v200.788
		c0,60.236,40.157,100.394,100.394,100.394h1405.513c60.236,0,100.394-40.157,100.394-100.394V301.181
		C2593.699,240.945,2553.542,200.787,2493.306,200.787z"/>
	<path fill="#808080" d="M2493.306,1003.938H1087.793c-60.236,0-100.394,40.157-100.394,100.394v200.787
		c0,60.236,40.157,100.394,100.394,100.394h1405.513c60.236,0,100.394-40.157,100.394-100.394v-200.787
		C2593.699,1044.095,2553.542,1003.938,2493.306,1003.938z"/>
	<path fill="#808080" d="M2493.306,1807.087H1087.793c-60.236,0-100.394,40.157-100.394,100.394v200.788
		c0,60.236,40.157,100.394,100.394,100.394h1405.513c60.236,0,100.394-40.157,100.394-100.394v-200.788
		C2593.699,1847.244,2553.542,1807.087,2493.306,1807.087z"/>
</g>
</svg>
