<?xml version="1.0" encoding="utf-8"?>
<!-- Generator: Adobe Illustrator 16.0.0, SVG Export Plug-In . SVG Version: 6.00 Build 0)  -->
<!DOCTYPE svg PUBLIC "-//W3C//DTD SVG 1.1//EN" "http://www.w3.org/Graphics/SVG/1.1/DTD/svg11.dtd">
<svg version="1.1" id="Capa_1" xmlns="http://www.w3.org/2000/svg" xmlns:xlink="http://www.w3.org/1999/xlink" x="0px" y="0px"
	 width="430.924px" height="430.924px" viewBox="0 0 430.924 430.924" enable-background="new 0 0 430.924 430.924"
	 xml:space="preserve">
<g>
	<g>
		<path fill="#808080" d="M296.924,403.242c-22.656,10.875-47.5,17.813-73.734,19.813v-64.813
			c14.609-1.625,28.672-4.906,41.609-10.594L296.924,403.242z"/>
		<path fill="#808080" d="M64.814,199.868H0.001c8.219-107.22,97.905-192,207.188-192c64.297,0,124.735,30.094,163.797,79.969
			l59.813-34.563l0.125,197.845l-171.406-98.813l55.094-31.875c-27.062-30.313-65.999-48.563-107.421-48.563
			C133.251,71.868,72.876,128.055,64.814,199.868z"/>
		<path fill="#808080" d="M322.674,301.024l56,32.313c-14.531,21.155-32.875,39.47-54,54.03l-32.314-56
			C303.924,322.805,314.111,312.586,322.674,301.024z"/>
		<path fill="#808080" d="M191.189,358.242v64.813c-26.25-2-51.094-8.938-73.719-19.813l32.094-55.594
			C162.532,353.336,176.595,356.617,191.189,358.242z"/>
		<path fill="#808080" d="M122.032,331.367l-32.313,56c-21.156-14.562-39.5-32.875-54.031-54.03l56-32.313
			C100.251,312.586,110.439,322.805,122.032,331.367z"/>
		<path fill="#808080" d="M75.376,273.461l-55.563,32.094C8.938,282.93,2,258.118,0,231.868h64.813
			C66.439,246.461,69.72,260.524,75.376,273.461z"/>
	</g>
</g>
</svg>
