<svg id="Layer_1" data-name="Layer 1" xmlns="http://www.w3.org/2000/svg" viewBox="0 0 48 48"><defs><style>.cls-1{fill:none;stroke:#fff;stroke-linecap:round;stroke-linejoin:round;stroke-width:1.5px;}.cls-2{fill:#fff;}</style></defs><title>Eds</title><polygon class="cls-1" points="10.81 34.3 13.99 34.88 13.99 16.69 10.81 34.3"/><polygon class="cls-1" points="14.75 12.47 14.55 13.57 20.85 13.57 14.75 12.47"/><polygon class="cls-1" points="32.64 38.25 33.09 35.76 18.87 35.76 32.64 38.25"/><polygon class="cls-1" points="36.59 16.41 36.18 16.34 36.18 18.68 36.59 16.41"/><polyline class="cls-1" points="13.99 34.88 13.99 35.76 18.87 35.76"/><polyline class="cls-1" points="36.18 16.34 36.18 13.57 20.85 13.57"/><polyline class="cls-1" points="33.09 35.76 36.18 35.76 36.18 18.68"/><polyline class="cls-1" points="14.55 13.57 13.99 13.57 13.99 16.69"/><line class="cls-1" x1="18.87" y1="35.76" x2="33.09" y2="35.76"/><line class="cls-1" x1="13.99" y1="16.69" x2="13.99" y2="34.88"/><line class="cls-1" x1="20.85" y1="13.57" x2="14.55" y2="13.57"/><line class="cls-1" x1="36.18" y1="18.68" x2="36.18" y2="16.34"/><line class="cls-1" x1="25.09" y1="16.34" x2="30.63" y2="8.02"/><circle class="cls-2" cx="30.98" cy="7.68" r="2.43"/><line class="cls-1" x1="19.54" y1="19.12" x2="30.63" y2="19.12"/><line class="cls-1" x1="19.54" y1="24.67" x2="30.63" y2="24.67"/><line class="cls-1" x1="19.54" y1="30.21" x2="30.63" y2="30.21"/></svg>