<svg width="512" height="512" xmlns="http://www.w3.org/2000/svg">

 <g>
  <title>background</title>
  <rect fill="none" id="canvas_background" height="402" width="582" y="-1" x="-1"/>
 </g>
 <g>
  <title fill="#ffffff">Layer 1</title>
  <path fill="#ffffff" id="XMLID_516_" d="m406.8,61.4l-112.5,0l0,-17.1c0,-21.1 -17.2,-38.3 -38.3,-38.3c-21.1,0 -38.3,17.2 -38.3,38.3l0,17.1l-112.5,0c-11.7,0 -21.3,9.5 -21.3,21.3l0,402c0,11.7 9.5,21.3 21.3,21.3l301.7,0c11.7,0 21.3,-9.5 21.3,-21.3l0,-402c-0.1,-11.7 -9.6,-21.3 -21.4,-21.3zm-179.3,-17.1c0,-15.7 12.8,-28.5 28.5,-28.5c15.7,0 28.5,12.8 28.5,28.5l0,40.2c0,5.4 -4.4,9.7 -9.7,9.7l-37.6,0c-5.4,0 -9.7,-4.4 -9.7,-9.7l0,-40.2zm-7.5,49.4c3.3,6.1 9.8,10.3 17.2,10.3l37.6,0c7.4,0 13.9,-4.2 17.2,-10.3l103.8,0l0,380l-279.6,0l0,-380l103.8,0zm198.3,391c0,6.3 -5.1,11.5 -11.5,11.5l-301.6,0c-6.3,0 -11.5,-5.1 -11.5,-11.5l0,-402c0,-6.3 5.1,-11.5 11.5,-11.5l112.5,0l0,12.7l-111.3,0l0,399.6l299.2,0l0,-399.6l-111.3,0l0,-12.7l112.5,0c6.3,0 11.5,5.1 11.5,11.5l0,402z"/>
  <path fill="#ffffff" id="XMLID_523_" d="m304.8,145.6l-97.7,0c-2.7,0 -4.9,2.2 -4.9,4.9l0,0c0,2.7 2.2,4.9 4.9,4.9l97.7,0c2.7,0 4.9,-2.2 4.9,-4.9l0,0c0,-2.7 -2.1,-4.9 -4.9,-4.9z"/>
  <path fill="#ffffff" id="XMLID_524_" d="m237.1,356.8l-97.7,0c-2.7,0 -4.9,2.2 -4.9,4.9l0,0c0,2.7 2.2,4.9 4.9,4.9l97.7,0c2.7,0 4.9,-2.2 4.9,-4.9l0,0c0,-2.8 -2.2,-4.9 -4.9,-4.9z"/>
  <path fill="#ffffff" id="XMLID_525_" d="m237.1,384.2l-97.7,0c-2.7,0 -4.9,2.2 -4.9,4.9l0,0c0,2.7 2.2,4.9 4.9,4.9l97.7,0c2.7,0 4.9,-2.2 4.9,-4.9l0,0c0,-2.7 -2.2,-4.9 -4.9,-4.9z"/>
  <path fill="#ffffff" id="XMLID_526_" d="m274.9,366.6l97.7,0c2.7,0 4.9,-2.2 4.9,-4.9l0,0c0,-2.7 -2.2,-4.9 -4.9,-4.9l-97.7,0c-2.7,0 -4.9,2.2 -4.9,4.9l0,0c0,2.7 2.2,4.9 4.9,4.9z"/>
  <path fill="#ffffff" id="XMLID_527_" d="m274.9,394l97.7,0c2.7,0 4.9,-2.2 4.9,-4.9l0,0c0,-2.7 -2.2,-4.9 -4.9,-4.9l-97.7,0c-2.7,0 -4.9,2.2 -4.9,4.9l0,0c0,2.7 2.2,4.9 4.9,4.9z"/>
  <path fill="#ffffff" id="XMLID_528_" d="m315.4,184.8l-118.8,0c-2.7,0 -4.9,2.2 -4.9,4.9l0,0c0,2.7 2.2,4.9 4.9,4.9l118.7,0c2.7,0 4.9,-2.2 4.9,-4.9l0,0c0.1,-2.7 -2.1,-4.9 -4.8,-4.9z"/>
  <path fill="#ffffff" id="XMLID_529_" d="m365,166.1l-218,0c-2.7,0 -4.9,2.2 -4.9,4.9l0,0c0,2.7 2.2,4.9 4.9,4.9l218,0c2.7,0 4.9,-2.2 4.9,-4.9l0,0c0.1,-2.7 -2.1,-4.9 -4.9,-4.9z"/>
  <path fill="#ffffff" id="XMLID_532_" d="m256,69.2c12.3,0 22.3,-10 22.3,-22.3c0,-12.3 -10,-22.3 -22.3,-22.3c-12.3,0 -22.3,10 -22.3,22.3c0,12.3 10,22.3 22.3,22.3zm0,-34.7c6.9,0 12.5,5.6 12.5,12.5c0,6.9 -5.6,12.5 -12.5,12.5c-6.9,0 -12.5,-5.6 -12.5,-12.5c0,-6.9 5.6,-12.5 12.5,-12.5z"/>
 </g>
</svg>