<svg width="100" height="100" xmlns="http://www.w3.org/2000/svg">

 <g>
  <title>background</title>
  <rect fill="none" id="canvas_background" height="402" width="582" y="-1" x="-1"/>
 </g>
 <g>
  <title fill="#ffffff">Layer 1</title>
  <path id="svg_7" fill="#ffffff" d="m20,87l60,0l0,-50l-60,0l0,50zm2,-12l9,0l0,10l-9,0l0,-10zm33,-12l0,10l-10,0l0,-10l10,0zm-10,-2l0,-10l10,0l0,10l-10,0zm-2,12l-10,0l0,-10l10,0l0,10zm0,2l0,10l-10,0l0,-10l10,0zm2,0l10,0l0,10l-10,0l0,-10zm12,0l10,0l0,10l-10,0l0,-10zm0,-2l0,-10l10,0l0,10l-10,0zm12,-10l9,0l0,10l-9,0l0,-10zm0,-2l0,-10l9,0l0,10l-9,0zm-2,0l-10,0l0,-10l10,0l0,10zm-10,-12l0,-10l10,0l0,10l-10,0zm-2,0l-10,0l0,-10l10,0l0,10zm-12,0l-10,0l0,-10l10,0l0,10zm0,2l0,10l-10,0l0,-10l10,0zm-12,10l-9,0l0,-10l9,0l0,10zm0,2l0,10l-9,0l0,-10l9,0zm38,22l0,-10l9,0l0,10l-9,0zm9,-36l-9,0l0,-10l9,0l0,10zm-47,-10l0,10l-9,0l0,-10l9,0z"/>
  <path id="svg_8" fill="#ffffff" d="m72,22l-2,0l0,-6.5c0,-1.104 -0.896,-2 -2,-2s-2,0.896 -2,2l0,6.5l-32,0l0,-6.5c0,-1.104 -0.896,-2 -2,-2s-2,0.896 -2,2l0,6.5l-2,0c-4.418,0 -8,3.082 -8,7.5l0,4.5l60,0l0,-4.5c0,-4.418 -3.582,-7.5 -8,-7.5zm-40.002,9.5c-2.21,0 -4,-1.79 -4,-4c0,-1.479 0.811,-2.754 2.002,-3.447l0,3.447c0,1.104 0.896,2 2,2s2,-0.896 2,-2l0,-3.444c1.189,0.693 1.998,1.968 1.998,3.444c0,2.21 -1.79,4 -4,4zm36,0c-2.21,0 -4,-1.79 -4,-4c0,-1.479 0.811,-2.754 2.002,-3.447l0,3.447c0,1.104 0.896,2 2,2s2,-0.896 2,-2l0,-3.444c1.189,0.693 1.998,1.968 1.998,3.444c0,2.21 -1.79,4 -4,4z"/>
  <rect id="svg_9" y="41" x="35" width="6" height="6" fill="#ffffff"/>
  <rect id="svg_10" y="65" x="59" width="6" height="6" fill="#ffffff"/>
  <rect id="svg_11" y="65" x="47" width="6" height="6" fill="#ffffff"/>
 </g>
</svg>