<svg id="Layer_1" data-name="Layer 1" xmlns="http://www.w3.org/2000/svg" viewBox="0 0 48 48"><defs><style>.cls-1{fill:none;stroke:#fff;stroke-linecap:round;stroke-linejoin:round;stroke-width:1.5px;}.cls-2{fill:#fff;}</style></defs><title>Calendar</title><rect class="cls-1" x="12" y="13.59" width="24" height="20.81"/><line class="cls-1" x1="12" y1="19.22" x2="36" y2="19.22"/><line class="cls-1" x1="18.38" y1="10.59" x2="18.38" y2="16.22"/><line class="cls-1" x1="30" y1="16.22" x2="30" y2="10.59"/><circle class="cls-2" cx="19.69" cy="23.91" r="0.75"/><circle class="cls-2" cx="22.69" cy="23.91" r="0.75"/><circle class="cls-2" cx="25.69" cy="23.91" r="0.75"/><circle class="cls-2" cx="28.69" cy="23.91" r="0.75"/><circle class="cls-2" cx="31.69" cy="23.91" r="0.75"/><circle class="cls-2" cx="19.69" cy="26.91" r="0.75"/><circle class="cls-2" cx="16.69" cy="26.91" r="0.75"/><circle class="cls-2" cx="22.69" cy="26.91" r="0.75"/><circle class="cls-2" cx="25.69" cy="26.91" r="0.75"/><circle class="cls-2" cx="28.69" cy="26.91" r="0.75"/><circle class="cls-2" cx="31.69" cy="26.91" r="0.75"/><circle class="cls-2" cx="19.69" cy="29.91" r="0.75"/><circle class="cls-2" cx="16.69" cy="29.91" r="0.75"/><circle class="cls-2" cx="22.69" cy="29.91" r="0.75"/><circle class="cls-2" cx="25.69" cy="29.91" r="0.75"/><circle class="cls-2" cx="28.69" cy="29.91" r="0.75"/></svg>