<svg id="Layer_1" data-name="Layer 1" xmlns="http://www.w3.org/2000/svg" viewBox="0 0 48 48"><defs><style>.cls-1{fill:none;stroke:#fff;stroke-linecap:round;stroke-linejoin:round;stroke-width:1.5px}.cls-2{fill:#fff}</style></defs><title>Calendar</title><path class="cls-1" d="M12 13.59h24V34.4H12zm0 5.63h24m-17.62-8.63v5.63m11.62 0v-5.63"/><circle class="cls-2" cx="19.69" cy="23.91" r=".75"/><circle class="cls-2" cx="22.69" cy="23.91" r=".75"/><circle class="cls-2" cx="25.69" cy="23.91" r=".75"/><circle class="cls-2" cx="28.69" cy="23.91" r=".75"/><circle class="cls-2" cx="31.69" cy="23.91" r=".75"/><circle class="cls-2" cx="19.69" cy="26.91" r=".75"/><circle class="cls-2" cx="16.69" cy="26.91" r=".75"/><circle class="cls-2" cx="22.69" cy="26.91" r=".75"/><circle class="cls-2" cx="25.69" cy="26.91" r=".75"/><circle class="cls-2" cx="28.69" cy="26.91" r=".75"/><circle class="cls-2" cx="31.69" cy="26.91" r=".75"/><circle class="cls-2" cx="19.69" cy="29.91" r=".75"/><circle class="cls-2" cx="16.69" cy="29.91" r=".75"/><circle class="cls-2" cx="22.69" cy="29.91" r=".75"/><circle class="cls-2" cx="25.69" cy="29.91" r=".75"/><circle class="cls-2" cx="28.69" cy="29.91" r=".75"/></svg>