<svg width="64" height="64" xmlns="http://www.w3.org/2000/svg">

 <g>
  <title>background</title>
  <rect fill="none" id="canvas_background" height="402" width="582" y="-1" x="-1"/>
 </g>
 <g>
  <title fill="#ffffff">Layer 1</title>
  <path fill="#ffffff" id="Fill-133" d="m49.6,54l-35.2,0c-2.4,0 -4.4,-2 -4.4,-4.4l0,-32.3c0,-2.4 1.6,-4.4 3.7,-4.4l2.2,0l0,2.9l-2.2,0c-0.3,0 -0.7,0.6 -0.7,1.5l0,32.3c0,0.8 0.7,1.5 1.5,1.5l35.2,0c0.8,0 1.5,-0.7 1.5,-1.5l0,-32.3c0,-0.9 -0.5,-1.5 -0.7,-1.5l-2.2,0l0,-2.9l2.2,0c2,0 3.7,2 3.7,4.4l0,32.3c-0.2,2.4 -2.2,4.4 -4.6,4.4" class="st0"/>
  <path fill="#ffffff" id="Fill-134" d="m20.3,18.8c-0.8,0 -1.5,-0.7 -1.5,-1.5l0,-5.9c0,-0.8 0.7,-1.5 1.5,-1.5s1.5,0.7 1.5,1.5l0,5.9c-0.1,0.8 -0.7,1.5 -1.5,1.5" class="st0"/>
  <path fill="#ffffff" id="Fill-135" d="m43.7,18.8c-0.8,0 -1.5,-0.7 -1.5,-1.5l0,-5.9c0,-0.8 0.7,-1.5 1.5,-1.5s1.5,0.7 1.5,1.5l0,5.9c0,0.8 -0.7,1.5 -1.5,1.5" class="st0"/>
  <polygon fill="#ffffff" points="24.699999809265137,12.899993896484375 39.30000019073486,12.899993896484375 39.30000019073486,15.899993896484375 24.699999809265137,15.899993896484375 " id="Fill-136" class="st0"/>
  <polygon fill="#ffffff" points="12.899999618530273,21.70001220703125 51.10000038146973,21.70001220703125 51.10000038146973,24.70001220703125 12.899999618530273,24.70001220703125 " id="Fill-137" class="st0"/>
  <polygon fill="#ffffff" points="45.19999980926514,27.600006103515625 48.10000038146973,27.600006103515625 48.10000038146973,30.5 45.19999980926514,30.5 " id="Fill-138" class="st0"/>
  <polygon fill="#ffffff" points="39.30000019073486,27.600006103515625 42.30000019073486,27.600006103515625 42.30000019073486,30.5 39.30000019073486,30.5 " id="Fill-139" class="st0"/>
  <polygon fill="#ffffff" points="33.5,27.600006103515625 36.40000009536743,27.600006103515625 36.40000009536743,30.5 33.5,30.5 " id="Fill-140" class="st0"/>
  <polygon fill="#ffffff" points="27.59999990463257,27.600006103515625 30.5,27.600006103515625 30.5,30.5 27.59999990463257,30.5 " id="Fill-141" class="st0"/>
  <polygon fill="#ffffff" points="21.699999809265137,27.600006103515625 24.699999809265137,27.600006103515625 24.699999809265137,30.5 21.699999809265137,30.5 " id="Fill-142" class="st0"/>
  <polygon fill="#ffffff" points="45.19999980926514,33.5 48.10000038146973,33.5 48.10000038146973,36.399993896484375 45.19999980926514,36.399993896484375 " id="Fill-143" class="st0"/>
  <polygon fill="#ffffff" points="39.30000019073486,33.5 42.30000019073486,33.5 42.30000019073486,36.399993896484375 39.30000019073486,36.399993896484375 " id="Fill-144" class="st0"/>
  <polygon fill="#ffffff" points="33.5,33.5 36.40000009536743,33.5 36.40000009536743,36.399993896484375 33.5,36.399993896484375 " id="Fill-145" class="st0"/>
  <polygon fill="#ffffff" points="27.59999990463257,33.5 30.5,33.5 30.5,36.399993896484375 27.59999990463257,36.399993896484375 " id="Fill-146" class="st0"/>
  <polygon fill="#ffffff" points="21.699999809265137,33.5 24.699999809265137,33.5 24.699999809265137,36.399993896484375 21.699999809265137,36.399993896484375 " id="Fill-147" class="st0"/>
  <polygon fill="#ffffff" points="15.899999618530273,33.5 18.800000190734863,33.5 18.800000190734863,36.399993896484375 15.899999618530273,36.399993896484375 " id="Fill-148" class="st0"/>
  <polygon fill="#ffffff" points="45.19999980926514,39.29998779296875 48.10000038146973,39.29998779296875 48.10000038146973,42.29998779296875 45.19999980926514,42.29998779296875 " id="Fill-149" class="st0"/>
  <polygon fill="#ffffff" points="39.30000019073486,39.29998779296875 42.30000019073486,39.29998779296875 42.30000019073486,42.29998779296875 39.30000019073486,42.29998779296875 " id="Fill-150" class="st0"/>
  <polygon fill="#ffffff" points="33.5,39.29998779296875 36.40000009536743,39.29998779296875 36.40000009536743,42.29998779296875 33.5,42.29998779296875 " id="Fill-151" class="st0"/>
  <polygon fill="#ffffff" points="27.59999990463257,39.29998779296875 30.5,39.29998779296875 30.5,42.29998779296875 27.59999990463257,42.29998779296875 " id="Fill-152" class="st0"/>
  <polygon fill="#ffffff" points="21.699999809265137,39.29998779296875 24.699999809265137,39.29998779296875 24.699999809265137,42.29998779296875 21.699999809265137,42.29998779296875 " id="Fill-153" class="st0"/>
  <polygon fill="#ffffff" points="15.899999618530273,39.29998779296875 18.800000190734863,39.29998779296875 18.800000190734863,42.29998779296875 15.899999618530273,42.29998779296875 " id="Fill-154" class="st0"/>
  <polygon fill="#ffffff" points="39.30000019073486,45.20001220703125 42.30000019073486,45.20001220703125 42.30000019073486,48.100006103515625 39.30000019073486,48.100006103515625 " id="Fill-155" class="st0"/>
  <polygon fill="#ffffff" points="33.5,45.20001220703125 36.40000009536743,45.20001220703125 36.40000009536743,48.100006103515625 33.5,48.100006103515625 " id="Fill-156" class="st0"/>
  <polygon fill="#ffffff" points="27.59999990463257,45.20001220703125 30.5,45.20001220703125 30.5,48.100006103515625 27.59999990463257,48.100006103515625 " id="Fill-157" class="st0"/>
  <polygon fill="#ffffff" points="21.699999809265137,45.20001220703125 24.699999809265137,45.20001220703125 24.699999809265137,48.100006103515625 21.699999809265137,48.100006103515625 " id="Fill-158" class="st0"/>
  <polygon fill="#ffffff" points="15.899999618530273,45.20001220703125 18.800000190734863,45.20001220703125 18.800000190734863,48.100006103515625 15.899999618530273,48.100006103515625 " id="Fill-159" class="st0"/>
 </g>
</svg>