<svg width="64" height="64" xmlns="http://www.w3.org/2000/svg">

 <title/>
 <g>
  <title>background</title>
  <rect fill="none" id="canvas_background" height="402" width="582" y="-1" x="-1"/>
 </g>
 <g>
  <title stroke="#ffffff">Layer 1</title>
  <path stroke-width="2px" stroke-linejoin="round" stroke-linecap="round" stroke="#ffffff" fill="none" id="svg_1" d="m25.41,43.845587a18.14,18.14 0 0 0 16.03,10.28l14.86,0s-4.39,-2 -0.9,-7.87a17.1,17.1 0 0 0 -13.4,-26.3a17.34,17.34 0 0 0 -3.3,0.13" class="cls-1"/>
  <path stroke-width="2px" stroke-linejoin="round" stroke-linecap="round" stroke="#ffffff" fill="none" id="svg_2" d="m8.6,36.255587a17.1,17.1 0 1 1 31.45,-8c-0.62,8.77 -8.73,15.87 -17.49,15.87l-14.86,0s4.39,-2 0.9,-7.87z" class="cls-1"/>
  <line stroke-width="2px" stroke-linejoin="round" stroke-linecap="round" stroke="#ffffff" fill="none" id="svg_3" y2="25.125587" y1="25.125587" x2="29" x1="17" class="cls-1"/>
  <line stroke-width="2px" stroke-linejoin="round" stroke-linecap="round" stroke="#ffffff" fill="none" id="svg_4" y2="30.125587" y1="30.125587" x2="29" x1="17" class="cls-1"/>
 </g>
</svg>