<svg xmlns="http://www.w3.org/2000/svg" width="512" height="512" viewBox="0 0 612 612"><path d="M612 306C612 137.004 474.995 0 306 0 137.004 0 0 137.004 0 306c0 168.995 137.004 306 306 306 168.995 0 306-137.005 306-306zm-584.182 0C27.818 152.36 152.36 27.818 306 27.818S584.182 152.36 584.182 306 459.64 584.182 306 584.182 27.818 459.64 27.818 306z" data-original="#000000" class="active-path" data-old_color="#ffffff" fill="#fff"/><path d="M317.739 482.617V306h58.279l9.208-58.529h-67.487v-29.348c0-15.272 5.007-29.849 26.928-29.849h43.813v-58.418h-62.201c-52.298 0-66.569 34.438-66.569 82.175v35.413h-35.885V306h35.885v176.617h58.029z" data-original="#000000" class="active-path" data-old_color="#ffffff" fill="#fff"/></svg>