<?xml version="1.0"?>
<svg xmlns="http://www.w3.org/2000/svg" xmlns:xlink="http://www.w3.org/1999/xlink" version="1.1" id="Capa_1" x="0px" y="0px" width="512px" height="512px" viewBox="0 0 512 512" style="enable-background:new 0 0 512 512;" xml:space="preserve" class=""><g><g>
	<path d="M256,0C114.609,0,0,114.609,0,256c0,141.391,114.609,256,256,256c141.391,0,256-114.609,256-256   C512,114.609,397.391,0,256,0z M256,472c-119.297,0-216-96.703-216-216S136.703,40,256,40s216,96.703,216,216S375.297,472,256,472z   " data-original="#000000" class="active-path" data-old_color="#fff" fill="#fff"/>
	<g>
		<g>
			<path d="M128.094,383.891h48v-192h-48V383.891z M320.094,191.891c-41.094,0.688-61.312,30.641-64,32v-32h-48v192h48v-112     c0-4.108,10.125-37,48-32c20.344,1.328,31.312,28.234,32,32v112l47.812,0.219V251.188     C382.219,232,372.625,192.578,320.094,191.891z M152.094,127.891c-13.25,0-24,10.734-24,24s10.75,24,24,24s24-10.734,24-24     S165.344,127.891,152.094,127.891z" data-original="#000000" class="active-path" data-old_color="#fff" fill="#fff"/>
		</g>
	</g>
</g></g> </svg>
