<svg id="Layer_1" data-name="Layer 1" xmlns="http://www.w3.org/2000/svg" viewBox="0 0 48 48"><defs><style>.cls-1{fill:none;stroke:#fff;stroke-linecap:round;stroke-linejoin:round;stroke-width:1.5px;}.cls-2{fill:#fff;}</style></defs><title>Messenger</title><path class="cls-1" d="M35.82,26.34a9.07,9.07,0,0,0,3-6.49C38.77,13.86,32.15,9,24,9S9.19,13.86,9.19,19.84A9.42,9.42,0,0,0,13,27.13h0l-1.14,7.61,6.94-4.41c.89.17,3.23.28,4.18.32"/><path class="cls-1" d="M23.15,30.11a4.26,4.26,0,0,0-.07.73c0,3.18,3.52,5.76,7.86,5.76a10.63,10.63,0,0,0,2-.18L37.59,39l-.82-4.26h0a5,5,0,0,0,2-3.88c0-2.07-1.49-3.87-3.73-4.89"/><path class="cls-1" d="M35.09,26a10,10,0,0,0-4.14-.87c-4,0-7.3,2.19-7.79,5"/><path class="cls-2" d="M13.46,20.17v-1l4.63-2v1.33l-3,1.2v0l3,1.19v1.33Z"/><path class="cls-2" d="M18.9,22.71l2.35-7.27h1.32l-2.35,7.27Z"/><path class="cls-2" d="M23.34,22.32V15.75h1.59v2.08l0,.4h0a1.42,1.42,0,0,1,.59-.55,1.81,1.81,0,0,1,.85-.2q1.7,0,1.7,1.77v3.07H26.48V19.55q0-.62-.52-.62a.9.9,0,0,0-.76.35,1.47,1.47,0,0,0-.27.92v2.13Z"/><path class="cls-2" d="M29.12,22.22V20.89l3-1.19v0l-3-1.2V17.14l4.63,2v1Z"/><polygon class="cls-2" points="26.25 31.3 30.23 33.06 30.33 33.11 30.33 31.81 27.85 30.84 30.29 29.87 30.33 29.85 30.33 28.56 26.25 30.37 26.25 31.3"/><polygon class="cls-2" points="31.96 28.6 31.86 28.56 31.86 29.85 34.34 30.84 31.91 31.8 31.86 31.81 31.86 33.11 35.95 31.3 35.95 30.37 31.96 28.6"/></svg>