<svg xmlns="http://www.w3.org/2000/svg" viewBox="0 0 64.236 64.236" width="512" height="512"><g fill="#FFF"><path d="M16.118 23h22v2h-22zm0 10h22v2h-22zm0 10h22v2h-22zm0 10h22v2h-22zm-8-30h4v2h-4zm0 10h4v2h-4zm0 10h4v2h-4zm0 10h4v2h-4z"/><path d="M46.118 7H32.649l-.75-3h-3.781V0h-10v4h-3.781l-.75 3H.118v57h46V7zM15.899 6h4.219V2h6v4h4.219l1.5 6H14.399l1.5-6zm28.219 56h-42V9h10.969l-1.25 5h22.562l-1.25-5h10.969v53zm20-7.764V0h-10v54.236l5 10 5-10zM62.118 2v8h-6V2h6zm-6 10h6v41.764l-3 6-3-6V12z"/></g></svg>