<svg id="Layer_1" data-name="Layer 1" xmlns="http://www.w3.org/2000/svg" viewBox="0 0 48 48"><defs><style>.cls-1{fill:none;stroke:#fff;stroke-linecap:round;stroke-linejoin:round;stroke-width:1.5px}.cls-2{fill:#fff}</style></defs><title>Eds</title><path class="cls-1" d="M10.81 34.3l3.18.58V16.69L10.81 34.3zm3.94-21.83l-.2 1.1h6.3l-6.1-1.1zm17.89 25.78l.45-2.49H18.87l13.77 2.49zm3.95-21.84l-.41-.07v2.34l.41-2.27zm-22.6 18.47v.88h4.88m17.31-19.42v-2.77H20.85m12.24 22.19h3.09V18.68m-21.63-5.11h-.56v3.12m4.88 19.07h14.22m-19.1-19.07v18.19m6.86-21.31h-6.3m21.63 5.11v-2.34m-11.09 0l5.54-8.32"/><circle class="cls-2" cx="30.98" cy="7.68" r="2.43"/><path class="cls-1" d="M19.54 19.12h11.09m-11.09 5.55h11.09m-11.09 5.54h11.09"/></svg>