<svg id="Layer_1" data-name="Layer 1" xmlns="http://www.w3.org/2000/svg" viewBox="0 0 48 48"><defs><style>.cls-1{fill:none;stroke:#fff;stroke-linecap:round;stroke-linejoin:round;stroke-width:1.5px}.cls-2{fill:#fff}</style></defs><title>Messenger</title><path class="cls-1" d="M35.82 26.34a9.07 9.07 0 0 0 3-6.49C38.77 13.86 32.15 9 24 9S9.19 13.86 9.19 19.84A9.42 9.42 0 0 0 13 27.13l-1.14 7.61 6.94-4.41c.89.17 3.23.28 4.18.32"/><path class="cls-1" d="M23.15 30.11a4.26 4.26 0 0 0-.07.73c0 3.18 3.52 5.76 7.86 5.76a10.63 10.63 0 0 0 2-.18L37.59 39l-.82-4.26a5 5 0 0 0 2-3.88c0-2.07-1.49-3.87-3.73-4.89"/><path class="cls-1" d="M35.09 26a10 10 0 0 0-4.14-.87c-4 0-7.3 2.19-7.79 5"/><path class="cls-2" d="M13.46 20.17v-1l4.63-2v1.33l-3 1.2 3 1.19v1.33zm5.44 2.54l2.35-7.27h1.32l-2.35 7.27zm4.44-.39v-6.57h1.59v2.48a1.42 1.42 0 0 1 .59-.55 1.81 1.81 0 0 1 .85-.2q1.7 0 1.7 1.77v3.07h-1.59v-2.77q0-.62-.52-.62a.9.9 0 0 0-.76.35 1.47 1.47 0 0 0-.27.92v2.13zm5.78-.1v-1.33l3-1.19-3-1.2v-1.36l4.63 2v1zm-2.87 9.08l3.98 1.76.1.05v-1.3l-2.48-.97 2.44-.97.04-.02v-1.29l-4.08 1.81v.93zm5.71-2.7l-.1-.04v1.29l2.48.99-2.43.96-.05.01v1.3l4.09-1.81v-.93l-3.99-1.77z"/></svg>