<svg xmlns="http://www.w3.org/2000/svg" width="512" height="512" viewBox="0 0 922.73 922.73"><path d="M854.73 854.73h-66v68h134v-134h-68zm-645.597 0h214.666v68H209.133zm289.799 0h214.666v68H498.932zM68 788.73H0v134h134v-68H68zM0 209.133h68v214.666H0zm0 289.799h68v214.666H0zM0 134h68V68h66V0H0zM498.932 0h214.665v68H498.932zm-289.8 0h214.666v68H209.132zM788.73 68h66v66h68V0h-134zm66 141.133h68v214.666h-68zm0 289.799h68v214.666h-68zm-141.802 53.97c-22.722-18.638-51.397-28.901-80.746-28.901-20.687 0-40.666 4.954-58.499 14.161l-69.071-74.668 217.618-235.25-49.918-46.176-214.018 231.357-214.018-231.357-49.917 46.176 217.619 235.25-69.071 74.668c-17.833-9.207-37.812-14.161-58.5-14.161-29.348 0-58.024 10.265-80.746 28.901-54.318 44.553-62.262 124.991-17.709 179.31 24.296 29.62 60.221 46.609 98.562 46.61h.002c29.347 0 58.023-10.265 80.745-28.901 49.897-40.928 60.656-112.135 27.541-165.56l65.493-70.799 65.493 70.799c-33.115 53.426-22.356 124.632 27.541 165.56 22.723 18.639 51.397 28.901 80.747 28.901 38.342 0 74.267-16.989 98.562-46.61 21.582-26.312 31.626-59.456 28.281-93.321-3.346-33.87-19.679-64.407-45.991-85.989zM322.136 697.344c-10.75 8.817-23.759 13.479-37.621 13.479-17.896-.001-34.658-7.923-45.987-21.735-20.774-25.327-17.07-62.834 8.257-83.607 10.75-8.817 23.759-13.479 37.622-13.479 2.754 0 5.476.21 8.16.578 14.761 2.022 28.24 9.47 37.826 21.157a59.019 59.019 0 0 1 12.087 25.021c4.565 21.102-2.535 43.979-20.344 58.586zm355.925-8.257c-11.33 13.813-28.091 21.735-45.985 21.735-13.863 0-26.873-4.661-37.622-13.479-17.809-14.606-24.909-37.483-20.345-58.586a59.031 59.031 0 0 1 12.087-25.021c9.587-11.688 23.067-19.136 37.827-21.158a60.227 60.227 0 0 1 8.161-.577c13.862 0 26.872 4.66 37.621 13.479 12.271 10.062 19.885 24.303 21.444 40.094 1.559 15.79-3.125 31.244-13.188 43.513z" fill="#FFF"/></svg>